#N canvas 574 275 1077 781 10;
#X obj 230 478 +~;
#X obj 227 179 +;
#X obj 270 179 f;
#X msg 227 155 1;
#X obj 254 232 sel 1;
#X msg 270 155 0;
#X obj 225 351 osc~ 220;
#X obj 228 540 dac~;
#X obj 362 27 loadbang;
#X msg 227 71 1;
#X obj 405 395 line~;
#X obj 403 475 *~ 0.3;
#X obj 228 503 *~ 0.2;
#X msg 485 379 0.3;
#X obj 227 129 metro 300;
#X obj 260 278 * 440;
#X msg 362 303 440;
#X msg 371 238 220;
#X obj 396 522 delwrite~ del 1000;
#X obj 410 245 * 600;
#X obj 684 22 hsl 128 15 0 1 0 0 empty empty empty -2 -8 0 10 -262144
-1 -1 0 1;
#X obj 683 86 hsl 128 15 0 1 0 0 empty empty empty -2 -8 0 10 -262144
-1 -1 0 1;
#X obj 683 141 hsl 128 15 0 1 0 0 empty empty empty -2 -8 0 10 -262144
-1 -1 0 1;
#X obj 686 210 hsl 128 15 0 1 0 0 empty empty empty -2 -8 0 10 -262144
-1 -1 0 1;
#X obj 405 439 vd~ del;
#X obj 416 268 + 20;
#X obj 254 208 > 4;
#X obj 227 301 * 150;
#X obj 278 106 * 1000;
#X msg 407 298 \$1 20;
#X msg 293 363 0 300;
#X obj 311 331 t b b;
#X obj 269 408 line~;
#X obj 231 439 *~;
#X obj 351 363 1;
#X obj 127 270 notein;
#X obj 128 293 mtof;
#X obj 691 237 r Delay_Repeats @hv_param 0 1 0.5;
#X obj 678 106 r Arp_Pitch @hv_param 0 1 0.5;
#X obj 683 42 r Arp_Speed @hv_param 0 1 0.5;
#X obj 693 159 r Delay_Time @hv_param 0 1 0.5;
#X connect 0 0 12 0;
#X connect 1 0 2 0;
#X connect 1 0 26 0;
#X connect 1 0 27 0;
#X connect 2 0 1 1;
#X connect 3 0 1 0;
#X connect 4 0 5 0;
#X connect 5 0 2 0;
#X connect 6 0 33 0;
#X connect 8 0 9 0;
#X connect 8 0 13 0;
#X connect 8 0 16 0;
#X connect 8 0 17 0;
#X connect 9 0 14 0;
#X connect 9 0 28 0;
#X connect 10 0 24 0;
#X connect 11 0 18 0;
#X connect 12 0 7 0;
#X connect 12 0 7 1;
#X connect 13 0 11 1;
#X connect 14 0 3 0;
#X connect 14 0 31 0;
#X connect 15 0 27 1;
#X connect 16 0 27 1;
#X connect 17 0 29 0;
#X connect 19 0 25 0;
#X connect 20 0 28 0;
#X connect 21 0 15 0;
#X connect 22 0 19 0;
#X connect 23 0 11 1;
#X connect 24 0 0 1;
#X connect 24 0 11 0;
#X connect 25 0 29 0;
#X connect 26 0 4 0;
#X connect 28 0 14 1;
#X connect 29 0 10 0;
#X connect 30 0 32 0;
#X connect 31 0 30 0;
#X connect 31 1 34 0;
#X connect 32 0 33 1;
#X connect 33 0 0 0;
#X connect 33 0 18 0;
#X connect 34 0 32 0;
#X connect 35 0 36 0;
#X connect 36 0 6 0;
#X connect 37 0 11 1;
#X connect 38 0 15 0;
#X connect 39 0 28 0;
#X connect 40 0 19 0;
